# xmcd CD database file
#
# Track frame offsets:
#	150
#	18066
#	35682
#	51808
#	66582
#	82736
#	98367
#	115210
#	131482
#
# Disc length: 1942 seconds
#
# Revision: 0
# Processed by: cddbd v1.5.2PL0 Copyright (c) Steve Scherf et al.
# Submitted via: CDex 1.51
#
DISCID=68079409
DTITLE=Era - 4906-9 The Very Best Of
DYEAR=1900
DGENRE=New Age
TTITLE0=Misere Mani
TTITLE1=Mother
TTITLE2=The Mass
TTITLE3=Looking For Something
TTITLE4=Ameno
TTITLE5=Infanati
TTITLE6=Enae Volare Mezzo
TTITLE7=Divano
TTITLE8=Looking For Something (Remix)
EXTD=
EXTT0=
EXTT1=
EXTT2=
EXTT3=
EXTT4=
EXTT5=
EXTT6=
EXTT7=
EXTT8=
PLAYORDER=
